<mxfile host="app.diagrams.net" modified="2021-03-04T17:03:52.783Z" agent="5.0 (Macintosh; Intel Mac OS X 10_15_6) AppleWebKit/605.1.15 (KHTML, like Gecko) Version/14.0.3 Safari/605.1.15" etag="7hcow35UNvgMc8xPRjg1" version="14.4.4" type="github">
  <diagram id="4sHTAi4N9JpQrXEXB4SI" name="Page-1">
    <mxGraphModel dx="1186" dy="795" grid="1" gridSize="10" guides="1" tooltips="1" connect="1" arrows="1" fold="1" page="1" pageScale="1" pageWidth="827" pageHeight="1169" math="0" shadow="0">
      <root>
        <mxCell id="0" />
        <mxCell id="1" parent="0" />
        <mxCell id="PCrquUOlpbZkqXvAuHo3-1" style="edgeStyle=orthogonalEdgeStyle;rounded=0;orthogonalLoop=1;jettySize=auto;html=1;exitX=1;exitY=0.5;exitDx=0;exitDy=0;" edge="1" parent="1" source="PCrquUOlpbZkqXvAuHo3-2" target="PCrquUOlpbZkqXvAuHo3-4">
          <mxGeometry relative="1" as="geometry" />
        </mxCell>
        <mxCell id="PCrquUOlpbZkqXvAuHo3-2" value="&lt;font style=&quot;font-size: 13px&quot;&gt;&lt;b&gt;GİRİŞ &lt;br&gt;KATMANI&lt;/b&gt;&lt;/font&gt;" style="whiteSpace=wrap;html=1;aspect=fixed;fillColor=#fff2cc;strokeColor=#d6b656;" vertex="1" parent="1">
          <mxGeometry x="60" y="105" width="90" height="90" as="geometry" />
        </mxCell>
        <mxCell id="PCrquUOlpbZkqXvAuHo3-3" style="edgeStyle=orthogonalEdgeStyle;rounded=0;orthogonalLoop=1;jettySize=auto;html=1;exitX=1;exitY=0.5;exitDx=0;exitDy=0;entryX=0;entryY=0.5;entryDx=0;entryDy=0;" edge="1" parent="1" source="PCrquUOlpbZkqXvAuHo3-4" target="PCrquUOlpbZkqXvAuHo3-19">
          <mxGeometry relative="1" as="geometry" />
        </mxCell>
        <mxCell id="PCrquUOlpbZkqXvAuHo3-4" value="&lt;b&gt;&lt;font style=&quot;font-size: 13px&quot;&gt;EVRİŞİMSEL KATMAN&lt;/font&gt;&lt;/b&gt;&lt;br&gt;&lt;font style=&quot;font-size: 10px&quot;&gt;(CONV_2D)&lt;/font&gt;" style="whiteSpace=wrap;html=1;aspect=fixed;fillColor=#dae8fc;strokeColor=#6c8ebf;" vertex="1" parent="1">
          <mxGeometry x="200" y="100" width="100" height="100" as="geometry" />
        </mxCell>
        <mxCell id="PCrquUOlpbZkqXvAuHo3-6" value="&lt;b&gt;&lt;font style=&quot;font-size: 13px&quot;&gt;HAVUZ&lt;br&gt;KATMAN&lt;/font&gt;&lt;/b&gt;&lt;br&gt;(&lt;font style=&quot;font-size: 10px&quot;&gt;MAX_POOLING_2D&lt;/font&gt;)" style="whiteSpace=wrap;html=1;aspect=fixed;fillColor=#dae8fc;strokeColor=#6c8ebf;" vertex="1" parent="1">
          <mxGeometry x="490" y="100" width="100" height="100" as="geometry" />
        </mxCell>
        <mxCell id="PCrquUOlpbZkqXvAuHo3-11" style="edgeStyle=orthogonalEdgeStyle;rounded=0;orthogonalLoop=1;jettySize=auto;html=1;exitX=1;exitY=0.5;exitDx=0;exitDy=0;entryX=0;entryY=0.5;entryDx=0;entryDy=0;" edge="1" parent="1" source="PCrquUOlpbZkqXvAuHo3-12" target="PCrquUOlpbZkqXvAuHo3-14">
          <mxGeometry relative="1" as="geometry" />
        </mxCell>
        <mxCell id="PCrquUOlpbZkqXvAuHo3-12" value="&lt;font&gt;&lt;b&gt;&lt;font style=&quot;font-size: 12px&quot;&gt;DÜZLEŞTİRİLMİŞ&lt;/font&gt;&lt;font style=&quot;font-size: 13px&quot;&gt; KATMAN&lt;/font&gt;&lt;/b&gt;&lt;br&gt;&lt;/font&gt;(&lt;font size=&quot;1&quot;&gt;FLATTEN&lt;/font&gt;)" style="whiteSpace=wrap;html=1;aspect=fixed;fillColor=#dae8fc;strokeColor=#6c8ebf;" vertex="1" parent="1">
          <mxGeometry x="200" y="535" width="100" height="100" as="geometry" />
        </mxCell>
        <mxCell id="PCrquUOlpbZkqXvAuHo3-13" style="edgeStyle=orthogonalEdgeStyle;rounded=0;orthogonalLoop=1;jettySize=auto;html=1;exitX=1;exitY=0.5;exitDx=0;exitDy=0;entryX=0;entryY=0.5;entryDx=0;entryDy=0;" edge="1" parent="1" source="PCrquUOlpbZkqXvAuHo3-14" target="PCrquUOlpbZkqXvAuHo3-16">
          <mxGeometry relative="1" as="geometry" />
        </mxCell>
        <mxCell id="PCrquUOlpbZkqXvAuHo3-14" value="&lt;b&gt;&lt;font style=&quot;font-size: 13px&quot;&gt;YOĞUN &lt;br&gt;KATMAN&lt;/font&gt;&lt;/b&gt;&lt;br&gt;(&lt;font style=&quot;font-size: 10px&quot;&gt;DENSE&lt;/font&gt;)" style="whiteSpace=wrap;html=1;aspect=fixed;fillColor=#dae8fc;strokeColor=#6c8ebf;" vertex="1" parent="1">
          <mxGeometry x="350" y="535" width="100" height="100" as="geometry" />
        </mxCell>
        <mxCell id="PCrquUOlpbZkqXvAuHo3-15" style="edgeStyle=orthogonalEdgeStyle;rounded=0;orthogonalLoop=1;jettySize=auto;html=1;exitX=1;exitY=0.5;exitDx=0;exitDy=0;" edge="1" parent="1" source="PCrquUOlpbZkqXvAuHo3-16" target="PCrquUOlpbZkqXvAuHo3-17">
          <mxGeometry relative="1" as="geometry" />
        </mxCell>
        <mxCell id="PCrquUOlpbZkqXvAuHo3-16" value="&lt;b&gt;&lt;font style=&quot;font-size: 13px&quot;&gt;YOĞUN &lt;br&gt;KATMAN&lt;/font&gt;&lt;/b&gt;&lt;br&gt;(&lt;font style=&quot;font-size: 10px&quot;&gt;DENSE&lt;/font&gt;)" style="whiteSpace=wrap;html=1;aspect=fixed;fillColor=#dae8fc;strokeColor=#6c8ebf;" vertex="1" parent="1">
          <mxGeometry x="490" y="535" width="100" height="100" as="geometry" />
        </mxCell>
        <mxCell id="PCrquUOlpbZkqXvAuHo3-17" value="&lt;span style=&quot;font-size: 14px&quot;&gt;&lt;b&gt;ÇIKTI&lt;br&gt;&lt;/b&gt;&lt;/span&gt;" style="whiteSpace=wrap;html=1;aspect=fixed;fillColor=#d5e8d4;strokeColor=#82b366;" vertex="1" parent="1">
          <mxGeometry x="630" y="540" width="90" height="90" as="geometry" />
        </mxCell>
        <mxCell id="PCrquUOlpbZkqXvAuHo3-18" style="edgeStyle=orthogonalEdgeStyle;rounded=0;orthogonalLoop=1;jettySize=auto;html=1;exitX=1;exitY=0.5;exitDx=0;exitDy=0;entryX=0;entryY=0.5;entryDx=0;entryDy=0;" edge="1" parent="1" source="PCrquUOlpbZkqXvAuHo3-19" target="PCrquUOlpbZkqXvAuHo3-6">
          <mxGeometry relative="1" as="geometry" />
        </mxCell>
        <mxCell id="PCrquUOlpbZkqXvAuHo3-19" value="&lt;b&gt;&lt;font style=&quot;font-size: 14px&quot;&gt;RELU&lt;/font&gt;&lt;/b&gt;" style="rounded=1;whiteSpace=wrap;html=1;fillColor=#f8cecc;strokeColor=#b85450;" vertex="1" parent="1">
          <mxGeometry x="360" y="130" width="70" height="40" as="geometry" />
        </mxCell>
        <mxCell id="PCrquUOlpbZkqXvAuHo3-22" style="edgeStyle=orthogonalEdgeStyle;rounded=0;orthogonalLoop=1;jettySize=auto;html=1;exitX=1;exitY=0.5;exitDx=0;exitDy=0;entryX=0;entryY=0.5;entryDx=0;entryDy=0;" edge="1" parent="1" source="PCrquUOlpbZkqXvAuHo3-23" target="PCrquUOlpbZkqXvAuHo3-27">
          <mxGeometry relative="1" as="geometry" />
        </mxCell>
        <mxCell id="PCrquUOlpbZkqXvAuHo3-23" value="&lt;b&gt;&lt;font style=&quot;font-size: 13px&quot;&gt;EVRİŞİMSEL KATMAN&lt;/font&gt;&lt;/b&gt;&lt;br&gt;&lt;font style=&quot;font-size: 10px&quot;&gt;(CONV_2D)&lt;/font&gt;" style="whiteSpace=wrap;html=1;aspect=fixed;fillColor=#dae8fc;strokeColor=#6c8ebf;" vertex="1" parent="1">
          <mxGeometry x="200" y="370" width="100" height="100" as="geometry" />
        </mxCell>
        <mxCell id="PCrquUOlpbZkqXvAuHo3-25" value="&lt;b&gt;&lt;font style=&quot;font-size: 13px&quot;&gt;HAVUZ &lt;br&gt;KATMAN&lt;/font&gt;&lt;/b&gt;&lt;br&gt;(&lt;font style=&quot;font-size: 10px&quot;&gt;MAX_POOLING_2D&lt;/font&gt;)" style="whiteSpace=wrap;html=1;aspect=fixed;fillColor=#dae8fc;strokeColor=#6c8ebf;" vertex="1" parent="1">
          <mxGeometry x="490" y="370" width="100" height="100" as="geometry" />
        </mxCell>
        <mxCell id="PCrquUOlpbZkqXvAuHo3-26" style="edgeStyle=orthogonalEdgeStyle;rounded=0;orthogonalLoop=1;jettySize=auto;html=1;exitX=1;exitY=0.5;exitDx=0;exitDy=0;entryX=0;entryY=0.5;entryDx=0;entryDy=0;" edge="1" parent="1" source="PCrquUOlpbZkqXvAuHo3-27" target="PCrquUOlpbZkqXvAuHo3-25">
          <mxGeometry relative="1" as="geometry" />
        </mxCell>
        <mxCell id="PCrquUOlpbZkqXvAuHo3-27" value="&lt;b&gt;&lt;font style=&quot;font-size: 14px&quot;&gt;RELU&lt;/font&gt;&lt;/b&gt;" style="rounded=1;whiteSpace=wrap;html=1;fillColor=#f8cecc;strokeColor=#b85450;" vertex="1" parent="1">
          <mxGeometry x="360" y="400" width="70" height="40" as="geometry" />
        </mxCell>
        <mxCell id="PCrquUOlpbZkqXvAuHo3-28" value="" style="endArrow=classic;html=1;exitX=1;exitY=0.5;exitDx=0;exitDy=0;" edge="1" parent="1" source="PCrquUOlpbZkqXvAuHo3-6">
          <mxGeometry width="50" height="50" relative="1" as="geometry">
            <mxPoint x="490" y="350" as="sourcePoint" />
            <mxPoint x="280" y="280" as="targetPoint" />
            <Array as="points">
              <mxPoint x="610" y="150" />
              <mxPoint x="610" y="230" />
              <mxPoint x="180" y="230" />
              <mxPoint x="180" y="280" />
            </Array>
          </mxGeometry>
        </mxCell>
        <mxCell id="PCrquUOlpbZkqXvAuHo3-29" value="" style="endArrow=none;dashed=1;html=1;dashPattern=1 3;strokeWidth=7;" edge="1" parent="1">
          <mxGeometry width="50" height="50" relative="1" as="geometry">
            <mxPoint x="320" y="280" as="sourcePoint" />
            <mxPoint x="480" y="280" as="targetPoint" />
          </mxGeometry>
        </mxCell>
        <mxCell id="PCrquUOlpbZkqXvAuHo3-30" value="" style="endArrow=classic;html=1;" edge="1" parent="1">
          <mxGeometry width="50" height="50" relative="1" as="geometry">
            <mxPoint x="510" y="280" as="sourcePoint" />
            <mxPoint x="200" y="420" as="targetPoint" />
            <Array as="points">
              <mxPoint x="610" y="280" />
              <mxPoint x="610" y="350" />
              <mxPoint x="180" y="350" />
              <mxPoint x="180" y="420" />
            </Array>
          </mxGeometry>
        </mxCell>
        <mxCell id="PCrquUOlpbZkqXvAuHo3-31" value="" style="endArrow=classic;html=1;entryX=0;entryY=0.5;entryDx=0;entryDy=0;" edge="1" parent="1" target="PCrquUOlpbZkqXvAuHo3-12">
          <mxGeometry width="50" height="50" relative="1" as="geometry">
            <mxPoint x="590" y="415" as="sourcePoint" />
            <mxPoint x="200" y="555" as="targetPoint" />
            <Array as="points">
              <mxPoint x="610" y="415" />
              <mxPoint x="610" y="485" />
              <mxPoint x="180" y="485" />
              <mxPoint x="180" y="585" />
            </Array>
          </mxGeometry>
        </mxCell>
        <mxCell id="PCrquUOlpbZkqXvAuHo3-33" value="" style="shape=curlyBracket;whiteSpace=wrap;html=1;rounded=1;strokeWidth=3;fontFamily=Courier New;fontSize=400;rotation=-180;" vertex="1" parent="1">
          <mxGeometry x="630" y="100" width="20" height="390" as="geometry" />
        </mxCell>
        <mxCell id="PCrquUOlpbZkqXvAuHo3-36" value="&lt;span style=&quot;font-weight: normal&quot;&gt;N adet&lt;/span&gt;" style="text;strokeColor=none;fillColor=none;html=1;fontSize=24;fontStyle=1;verticalAlign=middle;align=center;" vertex="1" parent="1">
          <mxGeometry x="650" y="275" width="100" height="40" as="geometry" />
        </mxCell>
      </root>
    </mxGraphModel>
  </diagram>
</mxfile>
